<?xml version="1.0" encoding="UTF-8"?>
<svg id="Layer_2" data-name="Layer 2" xmlns="http://www.w3.org/2000/svg" viewBox="0 0 5091.56 4796.53">
  <defs>
    <style>
      .cls-1 {
        fill: #ff5532;
        stroke-width: 0px;
      }
    </style>
  </defs>
  <g id="Layer_1-2" data-name="Layer 1">
    <g>
      <path class="cls-1" d="M4454.34,2619.36v-120.95c0-142.7-148.23-237.11-277.57-176.77-68.68,32.07-112.57,100.99-112.57,176.77v123.29c4.22,345.28-27.67,625.31-95.33,839.92-67.81,214.6-173.68,396.59-317.74,545.79-254.2,266.04-618.48,399-1092.83,399-567.67,0-982.86-186.59-1245.47-559.96-190.6-279.82-285.85-699.76-285.85-1259.75v-88.44c0-75.78-43.89-144.69-112.57-176.77-27.17-12.68-55.21-18.53-82.51-18.53-102.59,0-195.03,82.54-195.06,195.27v88.46c0,307.7,27.3,584.02,81.13,821.23,58.3,256.87,149.91,478.31,272.41,658.15,1.1,1.62,2.25,3.22,3.35,4.82,171.53,243.87,396.09,429.37,667.45,551.34,257.24,115.66,559.05,174.31,897.12,174.31,582.45,0,1044.8-174.57,1374.15-518.82,185.26-192.1,322.64-427.11,408.43-698.76,80.94-256.4,118.05-570.34,113.46-959.59Z"/>
      <path class="cls-1" d="M2953.57,3069.89c0,28.87-.82,56.18-2.47,81.91v552.09c0,23.49-7.68,43.12-23.03,58.9-15.37,15.81-34.78,23.7-58.25,23.7s-42.89-7.89-58.23-23.7c-13.83-14.2-21.4-31.5-22.77-51.94.19-2.28.26-4.59.26-6.96v-559.38c0-2.35-.07-4.66-.26-6.94-1.35-20.42-8.96-37.76-22.77-51.99-15.37-15.79-34.78-23.7-58.25-23.7s-42.89,7.92-58.23,23.7c-13.85,14.25-21.44,31.59-22.77,52.06-.19,2.26-.26,4.54-.26,6.87v559.38c0,2.35.07,4.63.26,6.89-1.37,20.47-8.96,37.79-22.77,52.01-15.37,15.81-34.78,23.7-58.25,23.7s-42.89-7.89-58.23-23.7c-13.83-14.23-21.42-31.55-22.77-52.01.16-2.26.23-4.54.23-6.89v-559.38c0-2.33-.07-4.61-.23-6.87-1.37-20.47-8.96-37.81-22.79-52.06-15.37-15.79-34.76-23.7-58.23-23.7s-42.91,7.92-58.25,23.7c-13.83,14.25-21.44,31.62-22.77,52.08-.19,2.24-.26,4.52-.26,6.84v559.38c0,2.33.07,4.61.26,6.84-1.33,20.49-8.94,37.83-22.77,52.06-15.37,15.81-34.76,23.7-58.23,23.7s-42.91-7.89-58.25-23.7c-15.37-15.79-23.03-35.41-23.03-58.9v-559.17c-1.65-25.75-2.47-52.99-2.47-81.7,0-155.39,25.05-265.05,75.39-328.98,32.27-41.14,80.56-69.03,144.91-83.7-.44-5.73-.65-11.55-.65-17.49v-1295.05c0-54.34,17.74-99.81,53.32-136.41,35.51-36.55,80.44-54.88,134.83-54.88s99.28,18.32,134.83,54.88c35.53,36.6,53.32,82.07,53.32,136.41v1295.05c0,6.1-.23,12.08-.68,17.95,67.54,16.02,116.99,47.17,148.38,93.53,47.96,70.78,71.94,179.25,71.94,325.55Z"/>
      <path class="cls-1" d="M4845.6,1762.88l-132.4,61.78-442.18,206.33-147.9,69.04v3.46l-322.32,150.44v-3.44l-805.68,376.06c-.07.04-.13.07-.2.09l-5.98,2.82c-.09.02-.17.06-.24.11-11.15,4.66-23.41,7.25-36.25,7.25-10.91,0-21.37-1.86-31.12-5.31-36.49-12.82-62.63-47.58-62.63-88.44,0-1.73.04-3.47.15-5.18v-1248.2c0-171.81-140.56-315.71-312.38-314.82h-1.43c-171.81-.89-312.38,143.01-312.38,314.82v1248.2c.11,1.71.15,3.44.15,5.18,0,40.86-26.14,75.62-62.63,88.44-9.74,3.44-20.2,5.31-31.12,5.31-12.84,0-25.1-2.6-36.25-7.25-.07-.04-.15-.09-.24-.11l-5.98-2.82c-.07-.02-.13-.04-.19-.09l-805.68-376.06v3.44l-322.32-150.44v-3.46l-147.9-69.04-442.18-206.33-132.4-61.78c-327.95-153.06-327.95-619.4,0-772.46l198.4-92.6L1963.69,188.64l243.06-113.43C2314.18,25.05,2429.99,0,2545.78,0s231.6,25.05,339.03,75.21l243.06,113.43,1519.33,709.19,198.4,92.6c327.95,153.06,327.95,619.4,0,772.46Z"/>
    </g>
  </g>
</svg>